<mxfile host="app.diagrams.net" modified="2023-09-26T11:21:50.553Z" agent="Mozilla/5.0 (X11; Ubuntu; Linux x86_64; rv:109.0) Gecko/20100101 Firefox/116.0" etag="1ljlcVsYkT7mKN9Ffog_" version="21.8.2" type="google">
  <diagram name="Page-1" id="E7upvIgJwefu3c9PNJXG">
    <mxGraphModel grid="1" page="1" gridSize="10" guides="1" tooltips="1" connect="1" arrows="1" fold="1" pageScale="1" pageWidth="850" pageHeight="1100" math="0" shadow="0">
      <root>
        <mxCell id="0" />
        <mxCell id="1" parent="0" />
        <mxCell id="BQNg4BpEUT595uw9QftZ-5" style="edgeStyle=orthogonalEdgeStyle;rounded=0;orthogonalLoop=1;jettySize=auto;html=1;entryX=0.5;entryY=1;entryDx=0;entryDy=0;" edge="1" parent="1" source="BQNg4BpEUT595uw9QftZ-1" target="BQNg4BpEUT595uw9QftZ-2">
          <mxGeometry relative="1" as="geometry" />
        </mxCell>
        <mxCell id="BQNg4BpEUT595uw9QftZ-8" value="" style="edgeStyle=orthogonalEdgeStyle;rounded=0;orthogonalLoop=1;jettySize=auto;html=1;" edge="1" parent="1" source="BQNg4BpEUT595uw9QftZ-1" target="BQNg4BpEUT595uw9QftZ-7">
          <mxGeometry relative="1" as="geometry" />
        </mxCell>
        <mxCell id="BQNg4BpEUT595uw9QftZ-10" style="edgeStyle=orthogonalEdgeStyle;rounded=0;orthogonalLoop=1;jettySize=auto;html=1;exitX=1;exitY=0.5;exitDx=0;exitDy=0;" edge="1" parent="1" source="BQNg4BpEUT595uw9QftZ-1">
          <mxGeometry relative="1" as="geometry">
            <mxPoint x="570" y="400" as="targetPoint" />
          </mxGeometry>
        </mxCell>
        <mxCell id="BQNg4BpEUT595uw9QftZ-12" style="edgeStyle=orthogonalEdgeStyle;rounded=0;orthogonalLoop=1;jettySize=auto;html=1;" edge="1" parent="1" source="BQNg4BpEUT595uw9QftZ-1" target="BQNg4BpEUT595uw9QftZ-13">
          <mxGeometry relative="1" as="geometry">
            <mxPoint x="420" y="520" as="targetPoint" />
          </mxGeometry>
        </mxCell>
        <mxCell id="BQNg4BpEUT595uw9QftZ-1" value="Orange Cube" style="rounded=0;whiteSpace=wrap;html=1;" vertex="1" parent="1">
          <mxGeometry x="360" y="360" width="120" height="80" as="geometry" />
        </mxCell>
        <mxCell id="BQNg4BpEUT595uw9QftZ-4" value="" style="edgeStyle=orthogonalEdgeStyle;rounded=0;orthogonalLoop=1;jettySize=auto;html=1;" edge="1" parent="1" source="BQNg4BpEUT595uw9QftZ-2" target="BQNg4BpEUT595uw9QftZ-3">
          <mxGeometry relative="1" as="geometry" />
        </mxCell>
        <mxCell id="BQNg4BpEUT595uw9QftZ-2" value="USB" style="rounded=0;whiteSpace=wrap;html=1;" vertex="1" parent="1">
          <mxGeometry x="170" y="280" width="50" height="30" as="geometry" />
        </mxCell>
        <mxCell id="BQNg4BpEUT595uw9QftZ-3" value="JETSON nano" style="ellipse;whiteSpace=wrap;html=1;rounded=0;" vertex="1" parent="1">
          <mxGeometry x="155" y="120" width="80" height="80" as="geometry" />
        </mxCell>
        <mxCell id="BQNg4BpEUT595uw9QftZ-7" value="GPS" style="rounded=0;whiteSpace=wrap;html=1;" vertex="1" parent="1">
          <mxGeometry x="360" y="200" width="120" height="80" as="geometry" />
        </mxCell>
        <mxCell id="BQNg4BpEUT595uw9QftZ-11" value="Telemetry Design" style="rounded=1;whiteSpace=wrap;html=1;" vertex="1" parent="1">
          <mxGeometry x="570" y="370" width="120" height="60" as="geometry" />
        </mxCell>
        <mxCell id="BQNg4BpEUT595uw9QftZ-13" value="&lt;div&gt;RF Module&lt;/div&gt;" style="rounded=0;whiteSpace=wrap;html=1;" vertex="1" parent="1">
          <mxGeometry x="360" y="490" width="120" height="60" as="geometry" />
        </mxCell>
      </root>
    </mxGraphModel>
  </diagram>
</mxfile>
